<svg xmlns="http://www.w3.org/2000/svg" xmlns:xlink="http://www.w3.org/1999/xlink" xmlns:xodm="http://www.corel.com/coreldraw/odm/2003" xml:space="preserve" version="1.1" style="shape-rendering:geometricPrecision;text-rendering:geometricPrecision;image-rendering:optimizeQuality;" viewBox="0 0 846.66 1058.325" x="0px" y="0px" fill-rule="evenodd" clip-rule="evenodd"><defs><style type="text/css">
   
    .fil0 {fill:black;fill-rule:nonzero}
   
  </style></defs><g><path class="fil0" d="M114.93 643.73l48.61 48.61 70.9 -122.8 15.66 8.99 -82.73 143.3 -65.27 -65.27 12.83 -12.83zm195.76 103.62l142.01 76.11 0 -405.55 -354.66 -190.05 0 258.63c23.26,-11.69 49.53,-18.3 77.35,-18.3 47.58,0 90.7,19.31 121.88,50.49 31.18,31.18 50.49,74.28 50.49,121.88 0,40.32 -13.86,77.44 -37.07,106.79zm-244.35 2.26c27.9,27.91 66.47,45.18 109.05,45.18 42.58,0 81.15,-17.27 109.06,-45.18 27.9,-27.9 45.17,-66.47 45.17,-109.05 0,-42.58 -17.27,-81.15 -45.17,-109.05 -27.91,-27.91 -66.48,-45.18 -109.06,-45.18 -42.58,0 -81.15,17.27 -109.05,45.18 -27.91,27.9 -45.18,66.47 -45.18,109.05 0,42.58 17.27,81.15 45.18,109.05zm279.16 -664.1l353.66 189.56 116.28 -62.32 -353.67 -189.54 -116.27 62.3zm362.74 205.18l0 125.56 -120.16 64.41 0 -125.58 -117.24 62.83 0 405.55 117.24 -62.83 0 -126.27 120.16 -64.4 0 126.27 117.25 -62.83 0 -405.54 -117.25 62.83zm-130.21 49.29l-353.67 -189.54 -116.26 62.31c117.92,63.13 235.88,126.21 353.67,189.53l116.26 -62.3zm-334.56 -199.78l353.66 189.54 82.93 -44.44 -353.67 -189.54 -82.92 44.44zm362.75 205.16l0 105.08 83.88 -44.96 0 -105.07 -83.88 44.95zm83.88 360.59l0 -105.79 -83.88 44.96 0 105.79 83.88 -44.96z"/></g><text x="0" y="861.66" fill="#000000" font-size="5px" font-weight="bold" font-family="'Helvetica Neue', Helvetica, Arial-Unicode, Arial, Sans-serif">Created by Liberus</text><text x="0" y="866.66" fill="#000000" font-size="5px" font-weight="bold" font-family="'Helvetica Neue', Helvetica, Arial-Unicode, Arial, Sans-serif">from the Noun Project</text></svg>