<svg xmlns="http://www.w3.org/2000/svg" xmlns:xlink="http://www.w3.org/1999/xlink" version="1.1" x="0px" y="0px" viewBox="0 0 100 125" style="enable-background:new 0 0 100 100;" xml:space="preserve"><path d="M40.644,24.994c4.328-1.658,9.282-0.641,12.619,2.595c1.643,1.592,2.784,3.601,3.302,5.809  c0.108,0.461,0.519,0.772,0.973,0.772c0.076,0,0.152-0.008,0.229-0.026c0.537-0.126,0.871-0.664,0.745-1.202  c-0.605-2.582-1.938-4.929-3.856-6.788c-3.894-3.775-9.674-4.964-14.727-3.026c-0.517,0.197-0.774,0.776-0.576,1.292  C39.55,24.934,40.13,25.193,40.644,24.994z"/><path d="M46.432,52.773c3.623,0,7.227-1.141,10.274-3.442l0.164,0.345c0.207,0.655,0.718,1.147,1.385,1.329  c0.822,0.225,1.74-0.049,2.401-0.711l0.076-0.076c0.709,0.342,1.854,0.584,3.623,0.096c2.57-0.709,3.195,0.948,3.292,1.276  c0.119,0.448,0.523,0.743,0.965,0.743c0.086,0,0.172-0.011,0.259-0.034c0.533-0.142,0.851-0.69,0.708-1.224  c-0.042-0.159-0.454-1.573-1.883-2.393c-1.065-0.611-2.368-0.712-3.872-0.296c-0.682,0.188-1.189,0.222-1.562,0.193  c0.366-0.585,0.493-1.272,0.322-1.901c-0.181-0.667-0.672-1.177-1.325-1.385l-0.401-0.194c5.002-6.892,4.113-16.4-2.29-22.609  c-6.998-6.784-18.212-6.672-24.999,0.254c-3.277,3.344-5.049,7.764-4.988,12.446c0.061,4.718,1.969,9.134,5.373,12.435  C37.479,51.045,41.971,52.773,46.432,52.773z M34.995,24.144c3.049-3.111,7.104-4.671,11.174-4.671c3.964,0,7.94,1.482,11.005,4.453  c5.957,5.776,6.544,14.755,1.367,20.888c-0.199,0.236-0.278,0.551-0.215,0.853c0.064,0.302,0.265,0.558,0.543,0.692l1.592,0.771  c0.059,0.029,0.124,0.044,0.188,0.061c0.022,0.04,0.032,0.251-0.191,0.475l-1.215,1.215c-0.223,0.224-0.434,0.212-0.467,0.188  c-0.016-0.061-0.037-0.121-0.064-0.178l-0.745-1.569c-0.135-0.283-0.395-0.487-0.702-0.55c-0.303-0.062-0.626,0.021-0.862,0.229  c-6.041,5.317-15.097,4.97-21.057-0.811c-3.02-2.928-4.712-6.843-4.766-11.024C30.525,31.019,32.094,27.105,34.995,24.144z"/><path d="M15.115,72.865h24.443c-0.316,5.229-4.061,8.18-4.86,8.75h-8.183c-3.164,0-5.738,2.574-5.738,5.738v1.944  c0,0.552,0.447,1,1,1h56.63c0.553,0,1-0.448,1-1v-1.944c0-3.164-2.574-5.738-5.738-5.738h-8.182  c-0.771-0.556-4.541-3.548-4.861-8.75h24.442c2.752,0,4.991-2.239,4.991-4.99V16.219c0-3.266-2.657-5.923-5.924-5.923H16.048  c-3.266,0-5.923,2.657-5.923,5.923v51.656C10.125,70.626,12.363,72.865,15.115,72.865z M77.407,87.353v0.944h-54.63v-0.944  c0-2.062,1.677-3.738,3.738-3.738h47.153C75.73,83.614,77.407,85.291,77.407,87.353z M62.479,81.614H37.705  c1.63-1.705,3.643-4.632,3.854-8.75h17.067C58.836,76.982,60.849,79.91,62.479,81.614z M85.068,70.865H15.115  c-1.648,0-2.99-1.341-2.99-2.99v-6.16H88.06v6.16C88.06,69.523,86.718,70.865,85.068,70.865z M16.048,12.296h68.088  c2.164,0,3.924,1.76,3.924,3.923v43.496H12.125V16.219C12.125,14.056,13.885,12.296,16.048,12.296z"/><text x="0" y="115" fill="#000000" font-size="5px" font-weight="bold" font-family="'Helvetica Neue', Helvetica, Arial-Unicode, Arial, Sans-serif">Created by Made by Made</text><text x="0" y="120" fill="#000000" font-size="5px" font-weight="bold" font-family="'Helvetica Neue', Helvetica, Arial-Unicode, Arial, Sans-serif">from the Noun Project</text></svg>